<?xml version="1.0" encoding="utf-8"?>
<!-- Generator: Adobe Illustrator 18.1.1, SVG Export Plug-In . SVG Version: 6.00 Build 0)  -->
<!DOCTYPE svg PUBLIC "-//W3C//DTD SVG 1.1//EN" "http://www.w3.org/Graphics/SVG/1.1/DTD/svg11.dtd">
<svg version="1.1" xmlns="http://www.w3.org/2000/svg" xmlns:xlink="http://www.w3.org/1999/xlink" x="0px" y="0px" width="12px"
	 height="12px" viewBox="0 0 12 12" enable-background="new 0 0 12 12" xml:space="preserve">
<g id="shapes_1">
</g>
<g id="shapes_2">
</g>
<g id="Layer_1">
	<g>
		<radialGradient id="SVGID_2_" cx="6" cy="6" r="5.2998" gradientUnits="userSpaceOnUse">
			<stop  offset="0" style="stop-color:#FF3260"/>
			<stop  offset="1" style="stop-color:#E62517"/>
		</radialGradient>
		<path fill="url(#SVGID_2_)" d="M6,11.3c-2.9,0-5.3-2.4-5.3-5.3S3.1,0.7,6,0.7s5.3,2.4,5.3,5.3S8.9,11.3,6,11.3z"/>
		<path fill="#656565" d="M6,1.4c2.5,0,4.6,2.1,4.6,4.6S8.5,10.6,6,10.6S1.4,8.5,1.4,6S3.5,1.4,6,1.4 M6,0C2.7,0,0,2.7,0,6
			s2.7,6,6,6s6-2.7,6-6S9.3,0,6,0L6,0z"/>
	</g>
</g>
</svg>
